<svg id="NavBar_Comple" data-name="NavBar Comple" xmlns="http://www.w3.org/2000/svg" width="102.999" height="55.702" viewBox="0 0 102.999 55.702">
  <g id="Logo">
    <path id="Subtraction_6" data-name="Subtraction 6" d="M2,50.97A2.035,2.035,0,0,1,.61,50.407,1.974,1.974,0,0,1,0,48.967V1.645a2.006,2.006,0,0,1,2-2A1.972,1.972,0,0,1,3-.085L43.827,23.576a2,2,0,0,1,0,3.461L3,50.7A1.973,1.973,0,0,1,2,50.97ZM3.36,12.585V38.028a12.578,12.578,0,0,0,2.529-.266,12.437,12.437,0,0,0,2.355-.746,12.573,12.573,0,0,0,2.13-1.175,12.708,12.708,0,0,0,3.388-3.434,12.737,12.737,0,0,0,1.886-4.541,12.98,12.98,0,0,0,0-5.117,12.727,12.727,0,0,0-5.274-7.975A12.508,12.508,0,0,0,8.244,13.6,12.442,12.442,0,0,0,3.36,12.585Z" transform="translate(0 0.358)" fill="#00d1f7"/>
    <text id="play" transform="translate(21.999 48.702)" fill="#fff" font-size="34" font-family="Verdana-Bold, Verdana" font-weight="700"><tspan x="0" y="0">play</tspan></text>
  </g>
</svg>
