<svg xmlns="http://www.w3.org/2000/svg" width="42.151" height="42.157" viewBox="0 0 42.151 42.157">
  <g id="user" transform="translate(0 2.55)">
    <path id="Path_329" data-name="Path 329" d="M21.078,0a21.078,21.078,0,0,0,0,42.157q.953,0,1.9-.085c.585-.052,1.165-.133,1.741-.233l.221-.039A21.079,21.079,0,0,0,21.079,0ZM19.385,40.677h-.05c-.547-.048-1.089-.121-1.627-.215l-.092-.015q-.788-.141-1.561-.347l-.125-.032c-.5-.136-1-.294-1.489-.47-.051-.018-.1-.034-.153-.053-.48-.176-.951-.374-1.416-.588-.058-.026-.115-.05-.173-.078-.455-.211-.9-.448-1.339-.7l-.186-.1q-.646-.377-1.265-.806l-.188-.129c-.406-.288-.8-.594-1.187-.913l-.106-.093V30.212a7.738,7.738,0,0,1,7.729-7.729H26a7.738,7.738,0,0,1,7.729,7.729v5.925l-.093.078q-.589.492-1.21.931l-.165.113q-.627.435-1.284.82l-.166.094c-.444.253-.9.492-1.357.707-.053.025-.106.048-.16.07-.468.216-.943.414-1.427.592-.048.018-.1.033-.141.05-.492.176-.991.336-1.5.473l-.121.03c-.516.136-1.036.254-1.562.348l-.091.014c-.538.094-1.081.167-1.628.216h-.05c-.562.048-1.124.074-1.693.074s-1.136-.021-1.7-.07Zm15.746-5.843V30.212A9.145,9.145,0,0,0,26,21.078H16.16a9.145,9.145,0,0,0-9.134,9.134v4.621a19.673,19.673,0,1,1,28.1,0Zm0,0" transform="translate(0 -2.55)" fill="rgba(255,255,255,0.99)"/>
    <path id="Path_330" data-name="Path 330" d="M167.026,64a7.026,7.026,0,1,0,7.026,7.026A7.026,7.026,0,0,0,167.026,64Zm0,12.647a5.621,5.621,0,1,1,5.621-5.621A5.621,5.621,0,0,1,167.026,76.647Zm0,0" transform="translate(-145.948 -58.379)" fill="rgba(255,255,255,0.99)"/>
  </g>
</svg>
