<svg id="shuffle" xmlns="http://www.w3.org/2000/svg" width="18.518" height="14.98" viewBox="0 0 18.518 14.98">
  <path id="Path_342" data-name="Path 342" d="M6.336,42.823l.858,1.716.863-1.725-.34-.681A3.837,3.837,0,0,0,4.265,40H0v1.543H4.265a2.3,2.3,0,0,1,2.07,1.28Z" transform="translate(0 -37.911)" fill="#f3f3f3"/>
  <path id="Path_343" data-name="Path 343" d="M99.531,105.851l-1.091,1.091,1,1H96.263a2.3,2.3,0,0,1-2.07-1.28l-.858-1.716-.863,1.725.34.681a3.837,3.837,0,0,0,3.451,2.133h3.174l-1,1,1.091,1.091,2.315-2.315a.772.772,0,0,0,0-1.091Z" transform="translate(-83.553 -96.591)" fill="#f3f3f3"/>
  <path id="Path_344" data-name="Path 344" d="M18.292,20.658l-2.315-2.315-1.091,1.091,1,1H12.71a3.837,3.837,0,0,0-3.451,2.133L6.336,28.411a2.3,2.3,0,0,1-2.07,1.28H0v1.543H4.265A3.837,3.837,0,0,0,7.716,29.1l2.923-5.847a2.3,2.3,0,0,1,2.07-1.28h3.174l-1,1,1.091,1.091,2.315-2.315a.772.772,0,0,0,0-1.091Z" transform="translate(0 -18.343)" fill="#f3f3f3"/>
</svg>
