<svg id="repeat" xmlns="http://www.w3.org/2000/svg" width="16.378" height="14.953" viewBox="0 0 16.378 14.953">
  <path id="Path_338" data-name="Path 338" d="M1.019,9.553a.318.318,0,0,0,.319-.319,3.509,3.509,0,0,1,3.5-3.5h7.647V8.586l4.365-3.175L12.489,2.236V5.092H4.842A4.147,4.147,0,0,0,.7,9.234.318.318,0,0,0,1.019,9.553Z" transform="translate(-0.477 -2.236)" fill="#f3f3f3"/>
  <path id="Path_339" data-name="Path 339" d="M15.836,26.2a.318.318,0,0,0-.319.319,3.509,3.509,0,0,1-3.5,3.5H4.365V27.167L0,30.342l4.365,3.175V30.661h7.647a4.147,4.147,0,0,0,4.142-4.142A.318.318,0,0,0,15.836,26.2Z" transform="translate(0 -18.564)" fill="#f3f3f3"/>
</svg>
